<svg width="16" height="20" viewBox="0 0 16 20" fill="none" xmlns="http://www.w3.org/2000/svg">
<path d="M7.93873 11.2133C7.01359 11.2144 6.11667 10.8948 5.40071 10.3089C4.68475 9.72303 4.19401 8.90707 4.01207 8C3.99756 7.90445 4.00401 7.80689 4.03095 7.71408C4.0579 7.62127 4.1047 7.53543 4.16811 7.4625C4.23153 7.38958 4.31004 7.33131 4.39821 7.29174C4.48638 7.25217 4.5821 7.23224 4.67873 7.23333C4.83755 7.23102 4.99198 7.28549 5.1142 7.38694C5.23643 7.48839 5.31841 7.63014 5.3454 7.78666C5.47095 8.38595 5.79891 8.92376 6.27419 9.30978C6.74947 9.69581 7.34311 9.90651 7.9554 9.90651C8.56769 9.90651 9.16133 9.69581 9.63661 9.30978C10.1119 8.92376 10.4398 8.38595 10.5654 7.78666C10.5924 7.63014 10.6744 7.48839 10.7966 7.38694C10.9188 7.28549 11.0732 7.23102 11.2321 7.23333C11.3287 7.23224 11.4244 7.25217 11.5126 7.29174C11.6008 7.33131 11.6793 7.38958 11.7427 7.4625C11.8061 7.53543 11.8529 7.62127 11.8798 7.71408C11.9068 7.80689 11.9132 7.90445 11.8987 8C11.7157 8.91271 11.2201 9.73302 10.4972 10.3196C9.77437 10.9061 8.86958 11.2222 7.93873 11.2133Z" fill="black"/>
<path d="M13.8721 20H2.00543C1.73416 20.0003 1.46565 19.9455 1.21624 19.8388C0.966833 19.7321 0.74174 19.5758 0.554654 19.3793C0.367568 19.1829 0.2224 18.9504 0.127982 18.6961C0.0335632 18.4418 -0.00813252 18.1709 0.00543144 17.9L0.545431 6.40667C0.56778 5.8914 0.78832 5.40468 1.161 5.04815C1.53368 4.69162 2.02968 4.49285 2.54543 4.49333H13.3321C13.8479 4.49285 14.3439 4.69162 14.7165 5.04815C15.0892 5.40468 15.3097 5.8914 15.3321 6.40667L15.8721 17.9C15.8857 18.1709 15.844 18.4418 15.7495 18.6961C15.6551 18.9504 15.51 19.1829 15.3229 19.3793C15.1358 19.5758 14.9107 19.7321 14.6613 19.8388C14.4119 19.9455 14.1434 20.0003 13.8721 20ZM2.54543 5.83333C2.36862 5.83333 2.19905 5.90357 2.07403 6.02859C1.949 6.15362 1.87876 6.32319 1.87876 6.5L1.33876 17.9667C1.33424 18.057 1.34814 18.1473 1.37961 18.232C1.41109 18.3168 1.45948 18.3943 1.52184 18.4598C1.5842 18.5252 1.65923 18.5774 1.74237 18.6129C1.8255 18.6485 1.91501 18.6668 2.00543 18.6667H13.8721C13.9625 18.6668 14.052 18.6485 14.1352 18.6129C14.2183 18.5774 14.2933 18.5252 14.3557 18.4598C14.4181 18.3943 14.4664 18.3168 14.4979 18.232C14.5294 18.1473 14.5433 18.057 14.5388 17.9667L13.9988 6.47333C13.9988 6.29652 13.9285 6.12695 13.8035 6.00193C13.6785 5.8769 13.5089 5.80667 13.3321 5.80667L2.54543 5.83333Z" fill="black"/>
<path d="M11.9387 5.16667H10.6054V4C10.6054 3.29276 10.3244 2.61448 9.82434 2.11438C9.32424 1.61428 8.64596 1.33333 7.93872 1.33333C7.23148 1.33333 6.5532 1.61428 6.0531 2.11438C5.55301 2.61448 5.27205 3.29276 5.27205 4V5.16667H3.93872V4C3.93872 2.93913 4.36015 1.92172 5.11029 1.17157C5.86044 0.421427 6.87785 0 7.93872 0C8.99959 0 10.017 0.421427 10.7671 1.17157C11.5173 1.92172 11.9387 2.93913 11.9387 4V5.16667Z" fill="black"/>
</svg>
