<svg width="22" height="22" viewBox="0 0 22 22" fill="none" xmlns="http://www.w3.org/2000/svg">
<path d="M11.0029 0.85C5.40619 0.85 0.85293 5.40326 0.85293 11C0.85293 16.5967 5.40619 21.15 11.0029 21.15C16.5997 21.15 21.1529 16.5967 21.1529 11C21.1529 5.40326 16.5997 0.85 11.0029 0.85ZM11.0029 19.9804C6.05098 19.9804 2.02248 15.9519 2.02248 11C2.02248 6.04805 6.05098 2.01955 11.0029 2.01955C15.9549 2.01955 19.9834 6.04805 19.9834 11C19.9834 15.9519 15.9549 19.9804 11.0029 19.9804ZM11.0029 10.4152C7.80355 10.4152 5.20074 13.0181 5.20074 16.2174C5.20074 16.5403 5.46269 16.8022 5.78553 16.8022C6.10839 16.8022 6.37033 16.5402 6.37033 16.2174C6.37033 13.6628 8.44838 11.5848 11.0029 11.5848C13.5575 11.5848 15.6355 13.6628 15.6355 16.2174C15.6355 16.5402 15.8975 16.8022 16.2203 16.8022C16.5432 16.8022 16.8051 16.5402 16.8051 16.2174C16.8051 13.0181 14.2023 10.4152 11.0029 10.4152ZM11.0029 3.4587C9.24184 3.4587 7.80943 4.89106 7.80943 6.6522C7.80943 8.41333 9.2418 9.84569 11.0029 9.84569C12.7641 9.84569 14.1964 8.41329 14.1964 6.6522C14.1964 4.8911 12.7641 3.4587 11.0029 3.4587ZM11.0029 8.6761C9.88752 8.6761 8.97903 7.7676 8.97903 6.6522C8.97903 5.53679 9.88752 4.62829 11.0029 4.62829C12.1183 4.62829 13.0268 5.53679 13.0268 6.6522C13.0268 7.7676 12.1184 8.6761 11.0029 8.6761Z" fill="black" stroke="black" stroke-width="0.3"/>
</svg>
